<svg xmlns="http://www.w3.org/2000/svg" width="70.005" height="26" viewBox="0 0 70.005 26">
  <g id="SD_Logo_main" data-name="SD Logo main" transform="translate(-53.632 -236.402)">
    <g id="Group_4" data-name="Group 4" transform="translate(53.632 236.402)">
      <path id="Path_1" data-name="Path 1" d="M59.93,254.6a2.02,2.02,0,0,1-.664-1.013l-.873-3.073a1.93,1.93,0,0,0-1.693-1.29l-3.069-.194v8l2.905,2.365a.569.569,0,0,0,.588.08l3.893-1.863a1.176,1.176,0,0,0,.7-1.078v-.392Z" transform="translate(-53.632 -238.086)" fill="#b89450"/>
      <g id="Group_1" data-name="Group 1" transform="translate(0 5.843)">
        <path id="Path_2" data-name="Path 2" d="M53.632,243.144v1.9a.248.248,0,0,0,.192.244l2.65.6a4.279,4.279,0,0,1,2.8,2.993l.608,2.142a.207.207,0,0,0,.221.155l.642-.069a14.383,14.383,0,0,1,3.1,0l.641.069a.207.207,0,0,0,.222-.155l.608-2.142a4.279,4.279,0,0,1,2.8-2.993l2.65-.6a.249.249,0,0,0,.192-.244v-1.9Z" transform="translate(-53.632 -243.144)" fill="#b89450"/>
      </g>
      <g id="Group_2" data-name="Group 2" transform="translate(4.457 21.17)">
        <path id="Path_3" data-name="Path 3" d="M67.107,261.995l-.792-.494a4.427,4.427,0,0,0-2.449-.671l-2.065.051a4.429,4.429,0,0,0-2.232.671l-.71.443a.181.181,0,0,0-.018.293l4.138,3.368,0,0h0l0,0,4.138-3.368A.182.182,0,0,0,67.107,261.995Z" transform="translate(-58.775 -260.828)" fill="#b89450"/>
      </g>
      <path id="Path_4" data-name="Path 4" d="M68.534,236.4a.422.422,0,0,0-.394.277l-.453,1.24a1.537,1.537,0,0,1-1.439,1.016H65.163a.275.275,0,0,1-.27-.307l.241-2.226H59.461l.241,2.226a.275.275,0,0,1-.27.307H58.347a1.537,1.537,0,0,1-1.439-1.016l-.454-1.24a.42.42,0,0,0-.393-.277H53.633v4.291H70.962V236.4Z" transform="translate(-53.632 -236.402)" fill="#b89450"/>
      <g id="Group_3" data-name="Group 3" transform="translate(9.273 10.946)">
        <path id="Path_5" data-name="Path 5" d="M69.321,249.226a1.931,1.931,0,0,0-1.693,1.29l-.873,3.073a2.02,2.02,0,0,1-.664,1.013l-1.759,1.542v.392a1.177,1.177,0,0,0,.7,1.078l3.868,1.863a.569.569,0,0,0,.588-.08l2.905-2.365v-8Z" transform="translate(-64.332 -249.032)" fill="#b89450"/>
      </g>
    </g>
    <g id="Group_5" data-name="Group 5" transform="translate(62.297 236.402)">
      <path id="Path_6" data-name="Path 6" d="M67.632,250.516l-.873,3.073A2.02,2.02,0,0,1,66.1,254.6l-1.758,1.542v.392a1.176,1.176,0,0,0,.7,1.078l3.868,1.863a.569.569,0,0,0,.588-.08l2.9-2.365v-8l-3.069.194A1.932,1.932,0,0,0,67.632,250.516Z" transform="translate(-63.724 -238.086)" fill="#ae8b4c"/>
      <path id="Path_7" data-name="Path 7" d="M72.3,236.4H69.871a.42.42,0,0,0-.393.277l-.454,1.24a1.537,1.537,0,0,1-1.438,1.016H66.5a.276.276,0,0,1-.271-.307l.241-2.226H63.63v4.291H72.3Z" transform="translate(-63.63 -236.402)" fill="#ae8b4c"/>
      <path id="Path_8" data-name="Path 8" d="M63.63,243.144v7.888a14.341,14.341,0,0,1,1.555.084l.642.069a.206.206,0,0,0,.221-.155l.608-2.142a4.279,4.279,0,0,1,2.8-2.993l2.65-.6a.248.248,0,0,0,.192-.244v-1.9Z" transform="translate(-63.63 -237.301)" fill="#ae8b4c"/>
      <path id="Path_9" data-name="Path 9" d="M66.966,261.5a4.426,4.426,0,0,0-2.449-.671l-.887.023v4.8l0,0h0l0,0,4.138-3.368a.181.181,0,0,0-.018-.293Z" transform="translate(-63.63 -239.659)" fill="#ae8b4c"/>
    </g>
    <g id="Group_6" data-name="Group 6" transform="translate(79.109 237.017)">
      <path id="Path_10" data-name="Path 10" d="M84.781,237.271a3.613,3.613,0,0,1,.848-.125h.7q.354,0,1.606.133t1.827.236v1.09q-.619-.045-2.033-.088-1.577-.059-1.863-.059c-.192,0-.361.007-.509.022a1.44,1.44,0,0,0-.486.155q-.486.251-.486,1.223v.855q0,.84.332,1.082a1.856,1.856,0,0,0,1.082.243h1.974q2.372,0,2.372,2.623v.928a2.194,2.194,0,0,1-1.311,2.284,4.124,4.124,0,0,1-1.539.265,20.893,20.893,0,0,1-2.1-.126,18.442,18.442,0,0,1-1.842-.257v-1.091q1.621.163,2.785.163t1.341-.015a2.936,2.936,0,0,0,.442-.081,1.424,1.424,0,0,0,.442-.185,1.088,1.088,0,0,0,.427-.943v-.884a1.652,1.652,0,0,0-.25-.98,1.04,1.04,0,0,0-.9-.346H85.695q-1.915,0-2.431-1.209a3.733,3.733,0,0,1-.236-1.414v-.958a2.435,2.435,0,0,1,.84-2.136A2.84,2.84,0,0,1,84.781,237.271Z" transform="translate(-83.028 -237.117)" fill="#b89450"/>
      <path id="Path_11" data-name="Path 11" d="M96.663,248.106h-.206a4.726,4.726,0,0,1-2.3-.368,3.954,3.954,0,0,1-.6-.523,2.261,2.261,0,0,1-.516-.847,9.752,9.752,0,0,1-.413-3.051v-6.069h1.355v6.069a8.539,8.539,0,0,0,.1,1.548c.063.3.118.543.162.715a1.309,1.309,0,0,0,.2.442c.088.122.17.228.244.316a.84.84,0,0,0,.309.221,3.079,3.079,0,0,0,.347.133,2.448,2.448,0,0,0,.4.074c.256.019.532.029.832.029s.53-.005.693-.015a2.607,2.607,0,0,0,.537-.1,1.569,1.569,0,0,0,.486-.213,1.963,1.963,0,0,0,.4-.391,1.736,1.736,0,0,0,.309-.626,7.144,7.144,0,0,0,.264-2.137v-6.069h1.37v6.069q0,2.889-1.016,3.876a3.8,3.8,0,0,1-.634.529,2.165,2.165,0,0,1-.767.266A8.432,8.432,0,0,1,96.663,248.106Z" transform="translate(-84.308 -237.13)" fill="#b89450"/>
      <path id="Path_12" data-name="Path 12" d="M109.47,247.293a5.068,5.068,0,0,1-2.8.8,2.982,2.982,0,0,1-2.46-1.017,5.151,5.151,0,0,1-.883-2.727c-.05-.5-.074-1.085-.074-1.752a16.429,16.429,0,0,1,.081-1.753,8.025,8.025,0,0,1,.3-1.48,3.48,3.48,0,0,1,.6-1.2,2.974,2.974,0,0,1,2.49-1.046,18.285,18.285,0,0,1,1.871.118q1.1.117,1.973.295V238.6c-.01,0-.1-.007-.264-.022l-.649-.051c-.264-.02-.549-.039-.855-.059q-1.1-.073-1.8-.074a2.8,2.8,0,0,0-1.09.17,1.708,1.708,0,0,0-.648.478,2.1,2.1,0,0,0-.391.84,12.127,12.127,0,0,0-.265,3.006,6.65,6.65,0,0,0,.487,2.975,1.881,1.881,0,0,0,1.812.914,4.525,4.525,0,0,0,1.1-.162,6.635,6.635,0,0,0,1.032-.339l.4-.177v-2.667h-2.21v-.9a8.357,8.357,0,0,1,2.564-.368c.314,0,.648.014,1,.044v5.8h-1Z" transform="translate(-85.725 -237.112)" fill="#b89450"/>
      <path id="Path_13" data-name="Path 13" d="M113.158,248.033l3.876-10.785h1.429l3.712,10.785h-1.547l-.883-2.844h-4.081l-.928,2.844Zm2.933-4.125h3.24l-1.591-4.715Z" transform="translate(-87.045 -237.13)" fill="#b89450"/>
      <path id="Path_14" data-name="Path 14" d="M129.289,237.248q2.608,0,2.608,3.271a4.673,4.673,0,0,1-.17,1.5c-.113.3-.209.528-.288.685a1.321,1.321,0,0,1-.287.391c-.113.1-.211.186-.294.25a1.31,1.31,0,0,1-.318.169,3.434,3.434,0,0,1-.471.132l2.211,4.391h-1.489l-2.135-4.318-2.637-.205v4.523h-1.355V237.248Zm-3.271,5.112h3.212q.81,0,1.046-.427a2.609,2.609,0,0,0,.25-1.245,5.3,5.3,0,0,0-.1-1.2,1.22,1.22,0,0,0-.309-.6,1.2,1.2,0,0,0-.884-.339h-3.212Z" transform="translate(-88.579 -237.13)" fill="#b89450"/>
      <path id="Path_15" data-name="Path 15" d="M83.266,264.033V253.248h4.155a3.647,3.647,0,0,1,1.65.354,3.057,3.057,0,0,1,1.1.884,4.478,4.478,0,0,1,.648,1.282,9.349,9.349,0,0,1,.413,2.917,6.338,6.338,0,0,1-1.267,4.228,3.031,3.031,0,0,1-1.082.817,3.456,3.456,0,0,1-1.466.3Zm1.355-1.326h2.755a1.984,1.984,0,0,0,1.444-.56,4.5,4.5,0,0,0,1.061-3.359,6.257,6.257,0,0,0-.634-3.293,2.1,2.1,0,0,0-1.871-.95H84.621Z" transform="translate(-83.06 -239.263)" fill="#b89450"/>
      <path id="Path_16" data-name="Path 16" d="M92.868,264.033l3.875-10.785h1.428l3.713,10.785h-1.547l-.883-2.843H95.373l-.928,2.843Zm2.932-4.125h3.24l-1.591-4.715Z" transform="translate(-84.34 -239.263)" fill="#b89450"/>
      <path id="Path_17" data-name="Path 17" d="M104.516,264.033V253.248h4.155a3.649,3.649,0,0,1,1.65.354,3.046,3.046,0,0,1,1.1.884,4.435,4.435,0,0,1,.648,1.282,9.322,9.322,0,0,1,.413,2.917,6.338,6.338,0,0,1-1.268,4.228,3.024,3.024,0,0,1-1.082.817,3.455,3.455,0,0,1-1.466.3Zm1.355-1.326h2.756a1.987,1.987,0,0,0,1.444-.56,4.5,4.5,0,0,0,1.06-3.359,6.257,6.257,0,0,0-.634-3.293,2.1,2.1,0,0,0-1.87-.95h-2.756Z" transform="translate(-85.893 -239.263)" fill="#b89450"/>
      <path id="Path_18" data-name="Path 18" d="M115.183,264.033V253.248h4.156a3.646,3.646,0,0,1,1.649.354,3.05,3.05,0,0,1,1.105.884,4.478,4.478,0,0,1,.648,1.282,9.323,9.323,0,0,1,.413,2.917,6.338,6.338,0,0,1-1.267,4.228,3.024,3.024,0,0,1-1.082.817,3.455,3.455,0,0,1-1.466.3Zm1.355-1.326h2.755a1.984,1.984,0,0,0,1.444-.56,4.5,4.5,0,0,0,1.061-3.359,6.257,6.257,0,0,0-.634-3.293,2.1,2.1,0,0,0-1.871-.95h-2.755Z" transform="translate(-87.315 -239.263)" fill="#b89450"/>
      <path id="Path_19" data-name="Path 19" d="M129.427,264.033h-1.355v-3.7l-3.389-7.087h1.473l2.608,5.525,2.873-5.525h1.473l-3.683,7.087Z" transform="translate(-88.582 -239.263)" fill="#b89450"/>
    </g>
  </g>
</svg>
